<svg version="1.2" xmlns="http://www.w3.org/2000/svg" viewBox="0 0 1500 512" width="1500" height="512">
	<title>Mastroify-Full-Logo</title>
	<defs>
		<linearGradient id="g1" x1="11.3" y1="264.9" x2="578.6" y2="264.9" gradientUnits="userSpaceOnUse">
			<stop offset="0" stop-color="#963bb4"/>
			<stop offset=".001" stop-color="#963bb4"/>
			<stop offset=".796" stop-color="#f0346f"/>
			<stop offset=".8" stop-color="#f0346f"/>
			<stop offset="1" stop-color="#edcd29"/>
		</linearGradient>
		<linearGradient id="g2" x1="4.5" y1="-39.1" x2="884.5" y2="-39.1" gradientUnits="userSpaceOnUse">
			<stop offset="0" stop-color="#963bb4"/>
			<stop offset=".001" stop-color="#963bb4"/>
			<stop offset=".503" stop-color="#f0346f"/>
			<stop offset=".748" stop-color="#edcd29"/>
			<stop offset=".75" stop-color="#edcd29"/>
			<stop offset="1" stop-color="#edcd29"/>
		</linearGradient>
	</defs>
	<style>
		tspan { white-space:pre } 
		.s0 { opacity: 1;fill: url(#g1) } 
		.t1 { font-size: 300px;fill:  url(#g2);font-weight: 700;font-family: "Charm-Bold", "Charm" } 
		.t2 { font-size: 300px;fill:  url(#g2);font-weight: 400;font-family: "Calligraffiti", "Calligraffiti" } 
	</style>
	<path id="Path 0" class="s0" d="m71.7 37.4c-5.3 1.9-13.4 6-17.9 9.2-4.5 3.2-14 11.8-21 19.2-8.8 9.3-14.1 18.1-17.2 28.6-2.5 8.3-4.5 19.5-4.3 24.8l0.2 9.6c13.5-25.7 21.1-36.9 25.7-41.6 5.6-5.6 13.3-9.5 23.5-11.9 11.5-2.7 18-2.8 26.9-0.5 7.1 1.9 14.4 6.3 18.6 11.3 3.7 4.6 8.1 12.9 9.7 18.6 1.5 5.7 4 23.4 5.5 39.3 2.1 21.7 1.8 46.2-1.4 97.8-2.3 37.9-4.8 81.9-5.6 97.9-0.8 15.9-2 40.4-2.8 54.4l-1.3 25.5h46.8c2.2-71.6 3.9-127.1 5.3-169.5 1.7-52 3.8-81.7 6.5-91 2.2-7.5 7-19.9 10.6-27.5 3.6-7.6 11.5-18.9 17.6-25.2 6.1-6.3 15.4-12.7 20.7-14.3 5.3-1.5 13.3-1.9 17.9-0.7 6.4 1.5 9.9 5.3 15.8 17 5.2 10.2 8.6 23.2 10.9 41.1 2.6 20.6 2.6 35.5-0.1 70.3-1.9 24.2-5.2 69.5-7.4 100.6-2.2 31-4.9 64.8-6.1 75.1l-2.1 18.6h52.4c3.4-97.2 5.3-160.2 6.4-202.6 2-74.4 2.3-77.6 8.8-90.8 3.8-7.4 12.4-18.3 19.2-24.2 6.8-5.9 16.8-11.8 22.1-13.3 5.3-1.4 11.5-2.6 13.7-2.7 2.4-0.1 6.9 6 10.7 14.5 3.6 8 8.4 23.8 10.6 35.2 2.9 14.3 4.1 37.3 4.1 74.4-0.1 29.6-2.1 71.7-4.5 93.7-2.4 22-5.6 54.2-7.2 71.7-1.9 21.7-1.9 38.2 0.1 52.3 1.6 12.1 6.2 27.6 10.8 37.2 4.4 9.1 12.4 20.6 17.9 25.5 5.4 5 13.9 9.7 18.9 10.6 5 1 15.8-0.2 24.8-2.7 9.3-2.6 20-8.1 25.9-13.4 5.6-4.9 14.6-15.8 20.1-24.1 6.5-10 16.4-34.5 28.8-71.6 10.4-31.1 20.9-60.3 23.2-64.8l4.4-8.3c3 25.6 5.4 38.7 7.3 45.5l3.4 12.4c6.2-19.5 8.6-42 9.4-64.8 0.9-21.9 0.8-47.1-0.2-55.8l-1.8-15.8c-9.8 7.5-25.3 23-40.7 39.2-15.5 16.3-31.2 34.3-34.9 40-3.8 5.7-8.7 15-11.1 20.7-3.9 9.7-3.9 10.2 0.6 7.9 2.7-1.3 12.9-8.8 22.8-16.6 9.8-7.8 18.8-14.2 19.9-14.1 1.2 0-2.1 9.7-7.2 21.4-5.1 11.7-14.8 32.5-21.7 46.2-6.8 13.6-18.6 35.3-26.2 48.2-9.4 16-16.3 24.5-21.7 26.9-6.6 3-8.9 2.9-14.1-0.7-3.4-2.3-8.3-8.2-10.9-13.1-3.3-6.4-4.7-16.1-4.8-33.8-0.1-13.6 1.5-49.6 3.6-79.9 2.4-35.3 3.3-85.4 2.6-139.2-1.1-78.7-1.6-85.3-7.5-103.3-4.4-13.5-9.4-22.2-16.4-29-6.3-6.1-14.9-11-23.1-13.1-7.2-1.9-17.7-2.6-23.4-1.7-5.7 1-16.6 4.6-24.1 8.1-7.6 3.4-20 11.8-27.6 18.5l-13.8 12.1c-12.8-19.5-21.5-27.9-27.5-31.3-6.1-3.5-17.3-7-24.8-8-9.8-1.3-18.2-0.4-29 3-12.5 4.1-19.3 9.1-38.8 28.7l-23.7 23.7c-14.6-27.4-23.3-39.2-28.7-43.9-5.5-4.6-14.8-10-20.7-11.9-5.9-1.8-13.2-3.3-16.2-3.3-3.1 0.1-9.9 1.6-15.2 3.5z"/>
	<text id="astroify" style="transform: matrix(1,0,0,1,444.495,251.074)" >
		<tspan x="0" y="0" class="t1">a</tspan><tspan  y="0" class="t1">s</tspan><tspan  y="0" class="t1">t</tspan><tspan  y="0" class="t1">r</tspan><tspan  y="0" class="t1">o</tspan><tspan  y="0" class="t2">i</tspan><tspan  y="0" class="t2">f</tspan><tspan  y="0" class="t2">y
</tspan>
	</text>
</svg>